<?xml version="1.0" encoding="UTF-8" standalone="no"?>
<!-- Created with Inkscape (http://www.inkscape.org/) -->

<svg
   width="210mm"
   height="297mm"
   viewBox="0 0 210 297"
   version="1.1"
   id="svg5"
   inkscape:version="1.2.2 (b0a8486541, 2022-12-01)"
   sodipodi:docname="layer-prevention-risk-assesment.svg"
   xmlns:inkscape="http://www.inkscape.org/namespaces/inkscape"
   xmlns:sodipodi="http://sodipodi.sourceforge.net/DTD/sodipodi-0.dtd"
   xmlns="http://www.w3.org/2000/svg"
   xmlns:svg="http://www.w3.org/2000/svg">
  <sodipodi:namedview
     id="namedview7"
     pagecolor="#505050"
     bordercolor="#ffffff"
     borderopacity="1"
     inkscape:showpageshadow="0"
     inkscape:pageopacity="0"
     inkscape:pagecheckerboard="1"
     inkscape:deskcolor="#505050"
     inkscape:document-units="mm"
     showgrid="false"
     inkscape:zoom="2.3156904"
     inkscape:cx="434.64359"
     inkscape:cy="262.55669"
     inkscape:window-width="1920"
     inkscape:window-height="1011"
     inkscape:window-x="0"
     inkscape:window-y="0"
     inkscape:window-maximized="1"
     inkscape:current-layer="layer1" />
  <defs
     id="defs2">
    <rect
       x="328.51337"
       y="26.45106"
       width="233.9743"
       height="72.549055"
       id="rect726" />
    <rect
       x="167.46392"
       y="-4.9649856"
       width="256.40765"
       height="94.573711"
       id="rect666" />
    <rect
       x="244.88791"
       y="76.670669"
       width="74.968338"
       height="55.402797"
       id="rect660" />
    <rect
       x="10.117002"
       y="44.141094"
       width="152.3906"
       height="199.75451"
       id="rect604" />
    <rect
       x="8.6917554"
       y="44.099532"
       width="95.330494"
       height="127.94146"
       id="rect598" />
    <rect
       x="244.88791"
       y="76.67067"
       width="74.968338"
       height="55.402798"
       id="rect660-5" />
    <rect
       x="244.88791"
       y="76.67067"
       width="74.968338"
       height="55.402798"
       id="rect660-5-2" />
    <rect
       x="244.88791"
       y="76.67067"
       width="74.968338"
       height="55.402798"
       id="rect660-5-2-1" />
    <rect
       x="244.88791"
       y="76.67067"
       width="74.968338"
       height="55.402798"
       id="rect660-5-2-7" />
    <rect
       x="244.88791"
       y="76.67067"
       width="74.968338"
       height="55.402798"
       id="rect660-5-2-9" />
    <rect
       x="167.46391"
       y="-4.9649854"
       width="256.40765"
       height="94.573708"
       id="rect666-0" />
    <rect
       x="328.51337"
       y="26.451059"
       width="233.9743"
       height="72.549057"
       id="rect726-9" />
    <rect
       x="244.88791"
       y="76.67067"
       width="74.968338"
       height="55.402798"
       id="rect660-5-2-9-0" />
    <rect
       x="244.88791"
       y="76.67067"
       width="74.968338"
       height="55.402798"
       id="rect660-5-2-9-0-3" />
    <rect
       x="244.88791"
       y="76.67067"
       width="74.968338"
       height="55.402798"
       id="rect660-5-2-9-0-5" />
    <rect
       x="244.88791"
       y="76.67067"
       width="74.968338"
       height="55.402798"
       id="rect660-5-2-9-0-2" />
    <rect
       x="167.46391"
       y="-4.9649854"
       width="256.40765"
       height="94.573708"
       id="rect666-0-9" />
    <rect
       x="328.51337"
       y="26.451059"
       width="233.9743"
       height="72.549057"
       id="rect726-9-1" />
    <rect
       x="328.51337"
       y="26.451059"
       width="233.9743"
       height="72.549057"
       id="rect726-9-1-9" />
  </defs>
  <g
     inkscape:label="Layer 1"
     inkscape:groupmode="layer"
     id="layer1">
    <path
       id="rect236"
       style="fill:#ffffff;stroke-width:0.140057"
       d="m 39.570241,8.1680704 c -0.115758,0 -0.209289,0.09353 -0.209289,0.20929 V 65.22867 c 0,0.115759 0.09353,0.208773 0.209289,0.208773 h 56.851307 c 0.11576,0 0.20877,-0.09301 0.20877,-0.208773 V 8.3773604 c 0,-0.115759 -0.093,-0.20929 -0.20877,-0.20929 z m 8.734351,3.9656486 a 5.2415848,5.2415848 0 0 1 5.241541,5.241541 5.2415848,5.2415848 0 0 1 -5.241541,5.24154 5.2415848,5.2415848 0 0 1 -5.24154,-5.24154 5.2415848,5.2415848 0 0 1 5.24154,-5.241541 z m 22.662183,5.225521 a 9.4347229,9.4347229 0 0 1 9.435083,9.434566 9.4347229,9.4347229 0 0 1 -9.435083,9.435083 9.4347229,9.4347229 0 0 1 -9.434566,-9.435083 9.4347229,9.4347229 0 0 1 9.434566,-9.434566 z m 12.646773,22.557796 a 6.2103286,6.2103286 0 0 1 6.210474,6.210474 6.2103286,6.2103286 0 0 1 -6.210474,6.209957 6.2103286,6.2103286 0 0 1 -6.209957,-6.209957 6.2103286,6.2103286 0 0 1 6.209957,-6.210474 z m -30.377474,2.074292 a 9.4347229,9.4347229 0 0 1 9.434566,9.434567 9.4347229,9.4347229 0 0 1 -9.434566,9.434566 9.4347229,9.4347229 0 0 1 -9.435083,-9.434566 9.4347229,9.4347229 0 0 1 9.435083,-9.434567 z" />
    <path
       id="rect236-2"
       style="fill:#ffffff;stroke-width:0.140057"
       d="m 8.0287679,74.545436 c -0.115758,0 -0.209289,0.09353 -0.209289,0.20929 v 56.851304 c 0,0.11576 0.09353,0.20878 0.209289,0.20878 H 64.880073 c 0.11576,0 0.20877,-0.093 0.20877,-0.20878 V 74.754726 c 0,-0.115759 -0.093,-0.20929 -0.20877,-0.20929 z m 8.7343511,3.965648 a 5.2415848,5.2415848 0 0 1 5.241541,5.241541 5.2415848,5.2415848 0 0 1 -5.241541,5.24154 5.2415848,5.2415848 0 0 1 -5.24154,-5.24154 5.2415848,5.2415848 0 0 1 5.24154,-5.241541 z m 22.662184,5.225522 a 9.4347229,9.4347229 0 0 1 9.43508,9.434565 9.4347229,9.4347229 0 0 1 -9.43508,9.435079 9.4347229,9.4347229 0 0 1 -9.43457,-9.435078 9.4347229,9.4347229 0 0 1 9.43457,-9.434566 z m 12.64677,22.557794 a 6.2103286,6.2103286 0 0 1 6.21048,6.21047 6.2103286,6.2103286 0 0 1 -6.21048,6.20996 6.2103286,6.2103286 0 0 1 -6.20996,-6.20996 6.2103286,6.2103286 0 0 1 6.20996,-6.21047 z m -30.377472,2.07429 a 9.4347229,9.4347229 0 0 1 9.434562,9.43457 9.4347229,9.4347229 0 0 1 -9.434562,9.43457 9.4347229,9.4347229 0 0 1 -9.435083,-9.43457 9.4347229,9.4347229 0 0 1 9.435083,-9.43457 z" />
    <rect
       style="fill:#ffffff;stroke-width:0.264583"
       id="rect515"
       width="57.910797"
       height="57.910797"
       x="156.24529"
       y="91.925865"
       rx="0.20895185" />
    <path
       id="rect515-6-6"
       style="fill:#aaaaff;stroke-width:0.264583"
       d="m 7.6120754,74.401528 c -0.115759,0 -0.208773,0.09301 -0.208773,0.208773 v 57.493129 c 0,0.11576 0.09301,0.20878 0.208773,0.20878 H 65.105211 c 0.11576,0 0.20877,-0.093 0.20877,-0.20878 V 74.610301 c 0,-0.115759 -0.09299,-0.208773 -0.20877,-0.208773 z M 25.249758,79.803782 A 10.554399,10.554399 0 0 1 35.804151,90.358177 10.554399,10.554399 0 0 1 25.249758,100.91257 10.554399,10.554399 0 0 1 14.695364,90.358177 10.554399,10.554399 0 0 1 25.249758,79.803782 Z m 6.04821,20.947048 a 10.659776,10.659776 0 0 1 10.659813,10.65929 10.659776,10.659776 0 0 1 -10.659813,10.65982 10.659776,10.659776 0 0 1 -10.659814,-10.65982 10.659776,10.659776 0 0 1 10.659814,-10.65929 z" />
    <path
       id="rect515-6-6-7"
       style="fill:#aaaaff;stroke-width:0.264583"
       d="m 101.03778,8.2492434 c -0.11576,0 -0.20878,0.09301 -0.20878,0.208773 V 65.951151 c 0,0.11575 0.093,0.20877 0.20878,0.20877 h 57.49314 c 0.11576,0 0.20877,-0.093 0.20877,-0.20877 V 8.4580164 c 0,-0.115759 -0.093,-0.208773 -0.20877,-0.208773 z m 17.63768,5.4022536 a 10.554399,10.554399 0 0 1 10.5544,10.554395 10.554399,10.554399 0 0 1 -10.5544,10.554393 10.554399,10.554399 0 0 1 -10.55439,-10.554393 10.554399,10.554399 0 0 1 10.55439,-10.554395 z m 6.04821,20.947048 a 10.659776,10.659776 0 0 1 10.65982,10.659286 10.659776,10.659776 0 0 1 -10.65982,10.65982 10.659776,10.659776 0 0 1 -10.65981,-10.65982 10.659776,10.659776 0 0 1 10.65981,-10.659286 z" />
    <rect
       style="fill:#ffffff;stroke-width:0.264583"
       id="rect515-3"
       width="57.910797"
       height="57.910797"
       x="217.38565"
       y="92.380753"
       rx="0.20895185" />
    <text
       xml:space="preserve"
       transform="scale(0.26458333)"
       id="text596"
       style="font-style:normal;font-weight:normal;font-size:40px;line-height:1.25;font-family:sans-serif;white-space:pre;shape-inside:url(#rect598);display:inline;fill:#000000;fill-opacity:1;stroke:none"><tspan
         x="8.6914062"
         y="208.43602"
         id="tspan2523"><tspan
           dx="0 29.240036 21.959991 22.23999 24.87999 10.400009 13.560028 30.400009 24.199982 29.240036"
           id="tspan2521">USER INPUT</tspan></tspan></text>
    <text
       xml:space="preserve"
       transform="scale(0.26458333)"
       id="text602"
       style="font-style:normal;font-weight:normal;font-size:16px;line-height:1.25;font-family:sans-serif;white-space:pre;shape-inside:url(#rect604);display:inline;fill:#ffffff;fill-opacity:1;stroke:none"><tspan
         x="10.117188"
         y="58.698628"
         id="tspan2525">USER
</tspan><tspan
         x="10.117188"
         y="78.698628"
         id="tspan2527">INPUT
</tspan><tspan
         x="10.117188"
         y="98.698628"
         id="tspan2529">
</tspan><tspan
         x="10.117188"
         y="118.69863"
         id="tspan2531">(ALWAYS
</tspan><tspan
         x="10.117188"
         y="138.69863"
         id="tspan2533">UNTRUSTED)</tspan></text>
    <text
       xml:space="preserve"
       transform="matrix(0.26458333,0,0,0.26458333,0.05452547,1.8428707)"
       id="text658"
       style="font-style:normal;font-weight:normal;font-size:8px;line-height:1.25;font-family:sans-serif;white-space:pre;shape-inside:url(#rect660);display:inline;fill:#ffffff;fill-opacity:1;stroke:none"><tspan
         x="244.88867"
         y="83.948923"
         id="tspan2535">Data gets 
</tspan><tspan
         x="244.88867"
         y="93.948923"
         id="tspan2537">sanatised into </tspan><tspan
         x="244.88867"
         y="103.94892"
         id="tspan2539">injectable
</tspan><tspan
         x="244.88867"
         y="113.94892"
         id="tspan2541">data [1]</tspan></text>
    <text
       xml:space="preserve"
       transform="matrix(0.26458333,0,0,0.26458333,-18.548356,27.024399)"
       id="text658-6"
       style="font-style:normal;font-weight:normal;font-size:8px;line-height:1.25;font-family:sans-serif;white-space:pre;shape-inside:url(#rect660-5);display:inline;fill:#ffffff;fill-opacity:1;stroke:none"><tspan
         x="244.88867"
         y="83.948923"
         id="tspan2543">Data bypasses
</tspan><tspan
         x="244.88867"
         y="93.948923"
         id="tspan2545">sanitisation
</tspan><tspan
         x="244.88867"
         y="103.94892"
         id="tspan2547">station</tspan></text>
    <text
       xml:space="preserve"
       transform="matrix(0.1555539,0,0,0.1555539,41.720985,30.081536)"
       id="text658-6-9"
       style="font-style:normal;font-weight:normal;font-size:8px;line-height:1.25;font-family:sans-serif;white-space:pre;shape-inside:url(#rect660-5-2);display:inline;fill:#ffffff;fill-opacity:1;stroke:none"><tspan
         x="244.88867"
         y="83.948923"
         id="tspan2549">Data is 
</tspan><tspan
         x="244.88867"
         y="93.948923"
         id="tspan2551">executed 
</tspan><tspan
         x="244.88867"
         y="103.94892"
         id="tspan2553">without being </tspan><tspan
         x="244.88867"
         y="113.94892"
         id="tspan2555">sanitised (For 
</tspan><tspan
         x="244.88867"
         y="123.94892"
         id="tspan2557">some reason)</tspan></text>
    <text
       xml:space="preserve"
       transform="matrix(0.1555539,0,0,0.1555539,6.5627553,2.0294212)"
       id="text658-6-9-3"
       style="font-style:normal;font-weight:normal;font-size:8px;line-height:1.25;font-family:sans-serif;white-space:pre;shape-inside:url(#rect660-5-2-9);display:inline;fill:#ffffff;fill-opacity:1;stroke:none"><tspan
         x="244.88867"
         y="83.948923"
         id="tspan2559">Data is
</tspan><tspan
         x="244.88867"
         y="93.948923"
         id="tspan2561">unable to be
</tspan><tspan
         x="244.88867"
         y="103.94892"
         id="tspan2563">sanitised and
</tspan><tspan
         x="244.88867"
         y="113.94892"
         id="tspan2565">causes issues</tspan></text>
    <text
       xml:space="preserve"
       transform="matrix(0.2847904,0,0,0.2847904,40.950773,-2.0049778)"
       id="text658-6-9-3-2"
       style="font-style:normal;font-weight:normal;font-size:8px;line-height:1.25;font-family:sans-serif;white-space:pre;shape-inside:url(#rect660-5-2-9-0);display:inline;fill:#aaaaff;fill-opacity:1;stroke:none"><tspan
         x="244.88867"
         y="83.948923"
         id="tspan2567">Data cannot be
</tspan><tspan
         x="244.88867"
         y="93.948923"
         id="tspan2569">parsed into an 
</tspan><tspan
         x="244.88867"
         y="103.94892"
         id="tspan2571">interface.</tspan></text>
    <text
       xml:space="preserve"
       transform="matrix(0.2847904,0,0,0.2847904,46.306299,19.524523)"
       id="text658-6-9-3-2-2"
       style="font-style:normal;font-weight:normal;font-size:8px;line-height:1.25;font-family:sans-serif;white-space:pre;shape-inside:url(#rect660-5-2-9-0-2);display:inline;fill:#aaaaff;fill-opacity:1;stroke:none"><tspan
         x="244.88867"
         y="83.948923"
         id="tspan2573">Data gets 
</tspan><tspan
         x="244.88867"
         y="93.948923"
         id="tspan2575">executed as code</tspan></text>
    <text
       xml:space="preserve"
       transform="matrix(0.2847904,0,0,0.2847904,45.571441,19.23598)"
       id="text658-6-9-3-2-9"
       style="font-style:normal;font-weight:normal;font-size:8px;line-height:1.25;font-family:sans-serif;white-space:pre;shape-inside:url(#rect660-5-2-9-0-5);display:inline;fill:#aaaaff;fill-opacity:1;stroke:none" />
    <text
       xml:space="preserve"
       transform="matrix(0.2847904,0,0,0.2847904,47.131983,19.27057)"
       id="text658-6-9-3-2-7"
       style="font-style:normal;font-weight:normal;font-size:8px;line-height:1.25;font-family:sans-serif;white-space:pre;shape-inside:url(#rect660-5-2-9-0-3);display:inline;fill:#aaaaff;fill-opacity:1;stroke:none" />
    <text
       xml:space="preserve"
       transform="matrix(0.1555539,0,0,0.1555539,7.067215,1.3545409)"
       id="text658-6-9-0"
       style="font-style:normal;font-weight:normal;font-size:8px;line-height:1.25;font-family:sans-serif;white-space:pre;shape-inside:url(#rect660-5-2-7);display:inline;fill:#ffffff;fill-opacity:1;stroke:none" />
    <text
       xml:space="preserve"
       transform="matrix(0.26458333,0,0,0.26458333,-3.9986902,3.661915)"
       id="text664"
       style="font-style:normal;font-weight:normal;font-size:16px;line-height:1.25;font-family:sans-serif;white-space:pre;shape-inside:url(#rect666);display:inline;fill:#ffffff;fill-opacity:1;stroke:none"><tspan
         x="167.46484"
         y="9.5931592"
         id="tspan2577">SANITISATION</tspan></text>
    <text
       xml:space="preserve"
       transform="matrix(0.26458333,0,0,0.26458333,57.469738,3.6163098)"
       id="text664-6"
       style="font-style:normal;font-weight:normal;font-size:16px;line-height:1.25;font-family:sans-serif;white-space:pre;shape-inside:url(#rect666-0);display:inline;fill:#aaaaff;fill-opacity:1;stroke:none"><tspan
         x="167.46484"
         y="9.5931592"
         id="tspan2579">INTERFACING</tspan></text>
    <text
       xml:space="preserve"
       transform="matrix(0.26458333,0,0,0.26458333,124.09266,2.8378588)"
       id="text664-6-7"
       style="font-style:normal;font-weight:normal;font-size:16px;line-height:1.25;font-family:sans-serif;white-space:pre;shape-inside:url(#rect666-0-9);display:inline;fill:#aaffaa;fill-opacity:1;stroke:none"><tspan
         x="167.46484"
         y="9.5931592"
         id="tspan2581">IGNOREING</tspan></text>
    <text
       xml:space="preserve"
       transform="matrix(0.26458333,0,0,0.26458333,-15.906787,-6.1769614)"
       id="text724"
       style="font-style:normal;font-weight:normal;font-size:10.6667px;line-height:1.25;font-family:sans-serif;white-space:pre;shape-inside:url(#rect726);display:inline;fill:#ffffff;fill-opacity:1;stroke:none"><tspan
         x="328.51367"
         y="36.156538"
         id="tspan2583">[1]: Repeat until no 
</tspan><tspan
         x="328.51367"
         y="49.489912"
         id="tspan2585">changes are needed.</tspan></text>
    <text
       xml:space="preserve"
       transform="matrix(0.26458333,0,0,0.26458333,43.099945,-6.050733)"
       id="text724-2"
       style="font-style:normal;font-weight:normal;font-size:6.66667px;line-height:1.25;font-family:sans-serif;white-space:pre;shape-inside:url(#rect726-9);display:inline;fill:#aaaaff;fill-opacity:1;stroke:none"><tspan
         x="328.51367"
         y="32.517009"
         id="tspan2587">User data is never EVER looked at as code.
</tspan><tspan
         x="328.51367"
         y="40.850345"
         id="tspan2589">If we need to execute code from the user,
</tspan><tspan
         x="328.51367"
         y="49.183681"
         id="tspan2591">it must occur via an interface.</tspan></text>
    <text
       xml:space="preserve"
       transform="matrix(0.26458333,0,0,0.26458333,106.92679,-6.2010618)"
       id="text724-2-2"
       style="font-style:normal;font-weight:normal;font-size:6.66667px;line-height:1.25;font-family:sans-serif;white-space:pre;shape-inside:url(#rect726-9-1);display:inline;fill:#aaffaa;fill-opacity:1;stroke:none"><tspan
         x="328.51367"
         y="32.517009"
         id="tspan2593">Ignore any malformed packet,
</tspan><tspan
         x="328.51367"
         y="40.850345"
         id="tspan2595">request, or data that cannot be
</tspan><tspan
         x="328.51367"
         y="49.183681"
         id="tspan2597">interfaced.</tspan></text>
    <text
       xml:space="preserve"
       transform="matrix(0.26458333,0,0,0.26458333,96.257295,36.845246)"
       id="text724-2-2-3"
       style="font-style:normal;font-weight:normal;font-size:6.66667px;line-height:1.25;font-family:sans-serif;white-space:pre;shape-inside:url(#rect726-9-1-9);display:inline;fill:#aaffaa;fill-opacity:1;stroke:none"><tspan
         x="328.51367"
         y="32.517009"
         id="tspan2599">Attack/Packet is valid
</tspan></text>
    <path
       id="rect515-8"
       style="fill:#aaffaa;stroke-width:0.264583"
       d="m 7.5745254,74.415679 c -0.115759,0 -0.20929,0.09301 -0.20929,0.208772 v 57.492619 c 0,0.11576 0.093531,0.20929 0.20929,0.20929 H 65.067143 c 0.11576,0 0.20929,-0.0935 0.20929,-0.20929 V 74.624451 c 0,-0.115759 -0.09353,-0.208772 -0.20929,-0.208772 z M 31.939963,96.479965 a 12.816258,12.816258 0 0 1 12.81627,12.816275 12.816258,12.816258 0 0 1 -12.81627,12.81627 12.816258,12.816258 0 0 1 -12.816272,-12.81627 12.816258,12.816258 0 0 1 12.816272,-12.816275 z" />
    <path
       id="rect515-8-6"
       style="fill:#aaffaa;stroke-width:0.264583"
       d="m 167.43389,8.7917418 c -0.11576,0 -0.20929,0.09301 -0.20929,0.208772 V 66.493129 c 0,0.11576 0.0935,0.20929 0.20929,0.20929 h 57.49261 c 0.11576,0 0.20929,-0.0935 0.20929,-0.20929 V 9.0005138 c 0,-0.115759 -0.0935,-0.208772 -0.20929,-0.208772 z m 24.36543,22.0642862 a 12.816258,12.816258 0 0 1 12.81627,12.816271 12.816258,12.816258 0 0 1 -12.81627,12.81627 12.816258,12.816258 0 0 1 -12.81627,-12.81627 12.816258,12.816258 0 0 1 12.81627,-12.816271 z" />
  </g>
</svg>
